<svg width="28" height="28" xmlns="http://www.w3.org/2000/svg" xml:space="preserve" enable-background="new 0 0 28 28" class="icon">

 <g>
  <title>Layer 1</title>
  <path d="m13.76,14.4c0.37,-0.15 0.78,-0.26 1.16,-0.43c-0.18,-0.34 -0.35,-0.73 -0.5,-1.04c-0.06,-0.11 -0.1,-0.25 -0.2,-0.33c-2.49,0.72 -5.25,1.17 -8.48,1.16c-0.06,2.6 0.88,4.41 2.12,5.79c1.44,-2.22 3.36,-4.09 5.9,-5.15zm1.69,0.98c-2.87,1.04 -5.13,2.68 -6.53,5.19c0.95,0.74 2.22,1.38 3.72,1.65c1.65,0.29 3.38,-0.01 4.6,-0.55c-0.37,-2.12 -0.97,-4.14 -1.65,-5.92c-0.02,-0.13 -0.02,-0.29 -0.14,-0.37zm-4.98,-8.86c-2.3,1.15 -3.92,2.99 -4.58,5.79c2.87,-0.04 5.42,-0.39 7.66,-1.04c-0.97,-1.63 -1.95,-3.26 -3.08,-4.75zm3.54,-6.52c-7.74,0 -14.01,6.28 -14.01,14.01s6.27,14.01 14.01,14.01c7.05,0 12.89,-5.21 13.86,-12c0.1,-0.46 0.14,-0.94 0.13,-1.43c0.01,-0.2 0.01,-0.39 0.01,-0.58c0.01,-7.73 -6.26,-14.01 -14,-14.01zm7.16,20.6c-0.77,0.85 -1.69,1.53 -2.78,2.07c-1.09,0.55 -2.33,0.97 -3.8,1.04c-3.1,0.15 -5.52,-1.04 -7.14,-2.53c-1.66,-1.53 -2.92,-3.59 -3.14,-6.56c-0.11,-1.58 0.2,-2.97 0.67,-4.15c0.48,-1.23 1.06,-2.14 1.84,-3.01c1.11,-1.2 2.61,-2.26 4.5,-2.78c0.68,-0.19 1.39,-0.31 2.1,-0.36c3.17,-0.2 5.51,1.07 7.16,2.56c1.65,1.48 2.94,3.62 3.11,6.58c0.2,3.11 -0.99,5.48 -2.52,7.14zm-4.12,-5.62c0.64,1.86 1.23,3.76 1.59,5.9c0.46,-0.26 0.86,-0.61 1.24,-0.99c1.14,-1.15 1.99,-2.63 2.33,-4.55c-1.42,-0.43 -3.42,-0.64 -5.16,-0.36zm-1.85,-4.18c1.73,-0.7 3.28,-1.6 4.3,-3.01c-1.36,-1.14 -3.32,-2.18 -5.82,-2.05c-0.6,0.03 -1.05,0.08 -1.59,0.2c0.93,1.37 1.93,2.79 2.73,4.22c0.12,0.22 0.2,0.47 0.38,0.64zm0.61,1.26c0.2,0.38 0.39,0.81 0.56,1.19c0.06,0.14 0.08,0.31 0.2,0.41c1.93,-0.22 4.06,-0.06 5.74,0.28c-0.06,-2.27 -0.82,-3.85 -1.87,-5.14c-1.2,1.43 -2.79,2.47 -4.63,3.26z" fill="#D1CECC" id="Ctftime"/>
  <rect id="svg_6" height="5" width="4.57142" y="11.62858" x="11.60002" stroke-width="15" stroke="#D1CECC" fill="none"/>
  <rect id="svg_9" height="18.42857" width="1.57143" y="5.77143" x="9.60001" stroke-width="15" fill="#ffffff"/>
  <path id="svg_12" d="m12.02858,5.77143c6.14286,2.14286 9.85714,5.28571 9.85714,5.28571c0,0 -6.57143,4 -9.85714,3.85714" opacity="NaN" stroke-width="15" fill="#ffffff"/>
 </g>
</svg>